<svg xmlns="http://www.w3.org/2000/svg" xmlns:xlink="http://www.w3.org/1999/xlink" width="1024" zoomAndPan="magnify" viewBox="0 0 768 767.999994" height="1024" preserveAspectRatio="xMidYMid meet" version="1.0"><defs><g/></defs><g fill="#000000" fill-opacity="1"><g transform="translate(266.584178, 211.181376)"><g><path d="M 142.78125 -120.5625 C 154.082031 -120.5625 163.34375 -118.078125 170.5625 -113.109375 C 177.789062 -108.148438 181.40625 -100.585938 181.40625 -90.421875 C 181.40625 -85.523438 180.273438 -80.6875 178.015625 -75.90625 C 175.753906 -71.132812 172.644531 -67.082031 168.6875 -63.75 C 164.726562 -60.425781 160.113281 -58.328125 154.84375 -57.453125 C 151.707031 -52.179688 148.003906 -46.9375 143.734375 -41.71875 C 139.460938 -36.507812 135.003906 -31.769531 130.359375 -27.5 C 122.191406 -19.96875 113.113281 -13.15625 103.125 -7.0625 C 93.144531 -0.96875 83.128906 3.925781 73.078125 7.625 C 63.035156 11.332031 53.679688 13.375 45.015625 13.75 C 39.867188 13.875 34.6875 13.335938 29.46875 12.140625 C 24.257812 10.953125 19.832031 8.410156 16.1875 4.515625 C 12.550781 0.628906 10.484375 -5.144531 9.984375 -12.8125 C 9.234375 -26.25 13 -39.59375 21.28125 -52.84375 C 29.570312 -66.09375 41.441406 -78.554688 56.890625 -90.234375 C 67.316406 -98.015625 77.675781 -104.101562 87.96875 -108.5 C 98.269531 -112.894531 108.097656 -116.003906 117.453125 -117.828125 C 126.804688 -119.648438 135.25 -120.5625 142.78125 -120.5625 Z M 176.703125 -90.421875 C 176.703125 -96.953125 175.285156 -102.222656 172.453125 -106.234375 C 169.628906 -110.253906 165.800781 -113.238281 160.96875 -115.1875 C 156.132812 -117.132812 150.703125 -118.109375 144.671875 -118.109375 C 133.992188 -118.109375 121.71875 -115.25 107.84375 -109.53125 C 93.96875 -103.820312 79.367188 -95.003906 64.046875 -83.078125 C 54.128906 -75.285156 45.460938 -67.210938 38.046875 -58.859375 C 30.640625 -50.515625 24.863281 -42.414062 20.71875 -34.5625 C 16.570312 -26.71875 14.5 -19.53125 14.5 -13 C 14.5 -7.34375 15.503906 -2.882812 17.515625 0.375 C 19.523438 3.644531 22.160156 6.0625 25.421875 7.625 C 28.691406 9.195312 32.269531 10.140625 36.15625 10.453125 C 40.050781 10.765625 43.882812 10.859375 47.65625 10.734375 C 42.257812 9.734375 38.398438 7.410156 36.078125 3.765625 C 33.753906 0.117188 32.59375 -3.894531 32.59375 -8.28125 C 32.59375 -15.0625 33.910156 -21.625 36.546875 -27.96875 C 39.179688 -34.3125 42.726562 -40.304688 47.1875 -45.953125 C 51.644531 -51.609375 56.539062 -56.882812 61.875 -61.78125 C 67.21875 -66.6875 72.523438 -71.082031 77.796875 -74.96875 C 85.203125 -80.5 92.894531 -85.175781 100.875 -89 C 108.851562 -92.832031 116.578125 -95.753906 124.046875 -97.765625 C 131.515625 -99.773438 138.265625 -100.78125 144.296875 -100.78125 C 150.203125 -100.78125 155.035156 -99.523438 158.796875 -97.015625 C 162.566406 -94.503906 164.453125 -90.296875 164.453125 -84.390625 C 164.453125 -80.117188 163.632812 -75.878906 162 -71.671875 C 160.363281 -67.460938 158.351562 -63.351562 155.96875 -59.34375 C 162.25 -61.476562 167.273438 -65.492188 171.046875 -71.390625 C 174.816406 -77.296875 176.703125 -83.640625 176.703125 -90.421875 Z M 161.625 -84.578125 C 161.75 -89.722656 160.175781 -93.300781 156.90625 -95.3125 C 153.644531 -97.320312 149.816406 -98.328125 145.421875 -98.328125 C 136.753906 -98.328125 126.863281 -95.722656 115.75 -90.515625 C 104.632812 -85.304688 93.488281 -78.429688 82.3125 -69.890625 C 77.414062 -66.117188 72.234375 -61.910156 66.765625 -57.265625 C 61.304688 -52.617188 56.222656 -47.65625 51.515625 -42.375 C 46.804688 -37.101562 42.976562 -31.546875 40.03125 -25.703125 C 37.082031 -19.867188 35.609375 -13.8125 35.609375 -7.53125 C 35.609375 -3.007812 37.019531 0.972656 39.84375 4.421875 C 42.664062 7.878906 47.78125 9.609375 55.1875 9.609375 C 62.976562 8.097656 70.984375 5.363281 79.203125 1.40625 C 87.429688 -2.539062 95.59375 -7.398438 103.6875 -13.171875 C 111.789062 -18.953125 119.488281 -25.300781 126.78125 -32.21875 C 129.414062 -34.726562 132.675781 -38.050781 136.5625 -42.1875 C 140.457031 -46.332031 144.289062 -50.882812 148.0625 -55.84375 C 151.832031 -60.8125 155.003906 -65.773438 157.578125 -70.734375 C 160.148438 -75.691406 161.5 -80.304688 161.625 -84.578125 Z M 161.625 -84.578125 "/></g></g></g><g fill="#000000" fill-opacity="1"><g transform="translate(414.075729, 211.181376)"><g><path d="M 17.140625 -31.828125 C 17.015625 -31.703125 17.015625 -31.578125 17.140625 -31.453125 C 17.265625 -31.328125 17.390625 -31.328125 17.515625 -31.453125 C 19.523438 -33.210938 22.191406 -35.441406 25.515625 -38.140625 C 28.847656 -40.847656 32.394531 -43.519531 36.15625 -46.15625 C 39.925781 -48.789062 43.539062 -50.984375 47 -52.734375 C 50.457031 -54.492188 53.25 -55.375 55.375 -55.375 C 59.019531 -55.375 60.84375 -53.742188 60.84375 -50.484375 C 60.84375 -46.585938 59.429688 -42.128906 56.609375 -37.109375 C 53.785156 -32.085938 50.363281 -27.566406 46.34375 -23.546875 C 38.050781 -15.128906 30.296875 -8.878906 23.078125 -4.796875 C 15.859375 -0.722656 9.296875 1.3125 3.390625 1.3125 C 0.628906 1.3125 -1.25 0.75 -2.25 -0.375 C -3.257812 -1.507812 -3.765625 -2.640625 -3.765625 -3.765625 C -3.765625 -4.773438 -3.515625 -5.28125 -3.015625 -5.28125 C -2.515625 -5.40625 -2.203125 -5.273438 -2.078125 -4.890625 C -1.953125 -4.515625 -1.757812 -4.140625 -1.5 -3.765625 C -1.25 -3.265625 -0.84375 -2.757812 -0.28125 -2.25 C 0.28125 -1.75 1.191406 -1.5 2.453125 -1.5 C 4.835938 -1.5 7.378906 -2.191406 10.078125 -3.578125 C 12.773438 -4.960938 16.257812 -7.628906 20.53125 -11.578125 C 24.800781 -15.535156 30.578125 -21.222656 37.859375 -28.640625 C 40.242188 -31.023438 42.847656 -33.691406 45.671875 -36.640625 C 48.503906 -39.585938 50.957031 -42.410156 53.03125 -45.109375 C 55.101562 -47.816406 56.140625 -49.796875 56.140625 -51.046875 C 56.140625 -51.929688 55.507812 -52.375 54.25 -52.375 C 52.363281 -52.375 49.441406 -51.242188 45.484375 -48.984375 C 41.535156 -46.722656 37.140625 -43.769531 32.296875 -40.125 C 27.460938 -36.476562 22.660156 -32.613281 17.890625 -28.53125 C 13.117188 -24.457031 8.914062 -20.597656 5.28125 -16.953125 C -3.382812 -8.160156 -12.613281 1.632812 -22.40625 12.4375 C -32.207031 23.238281 -42.382812 35.921875 -52.9375 50.484375 C -54.0625 52.117188 -55.0625 53.5625 -55.9375 54.8125 C -56.820312 56.070312 -57.515625 56.703125 -58.015625 56.703125 C -58.773438 56.703125 -59.125 55.914062 -59.0625 54.34375 C -59 52.769531 -58.773438 51.359375 -58.390625 50.109375 C -57.390625 46.585938 -54.941406 41.875 -51.046875 35.96875 C -47.148438 30.070312 -42.503906 23.796875 -37.109375 17.140625 C -30.828125 9.484375 -24.546875 2.203125 -18.265625 -4.703125 C -11.992188 -11.609375 -6.28125 -17.726562 -1.125 -23.0625 C 4.019531 -28.40625 8.035156 -32.523438 10.921875 -35.421875 C 15.316406 -39.941406 20.304688 -44.835938 25.890625 -50.109375 C 31.484375 -55.378906 38.175781 -60.523438 45.96875 -65.546875 C 49.101562 -67.554688 51.894531 -68.90625 54.34375 -69.59375 C 56.789062 -70.289062 58.644531 -70.640625 59.90625 -70.640625 C 60.53125 -70.640625 61.21875 -70.546875 61.96875 -70.359375 C 62.726562 -70.171875 63.109375 -69.765625 63.109375 -69.140625 C 63.109375 -68.878906 62.757812 -68.71875 62.0625 -68.65625 C 61.375 -68.59375 60.78125 -68.5 60.28125 -68.375 C 56.632812 -68 52.550781 -66.054688 48.03125 -62.546875 C 44.894531 -60.023438 41.503906 -57.003906 37.859375 -53.484375 C 34.222656 -49.972656 30.613281 -46.332031 27.03125 -42.5625 C 23.445312 -38.800781 20.148438 -35.222656 17.140625 -31.828125 Z M 17.140625 -31.828125 "/></g></g></g><g fill="#000000" fill-opacity="1"><g transform="translate(471.527733, 211.181376)"><g><path d="M 17.703125 -31.828125 C 14.566406 -28.941406 11.488281 -25.800781 8.46875 -22.40625 C 5.457031 -19.019531 2.945312 -15.753906 0.9375 -12.609375 C -1.070312 -9.472656 -2.078125 -6.898438 -2.078125 -4.890625 C -2.078125 -2.378906 -0.628906 -1.125 2.265625 -1.125 C 4.148438 -1.125 6.535156 -1.6875 9.421875 -2.8125 C 12.304688 -3.945312 15.316406 -5.519531 18.453125 -7.53125 C 22.984375 -10.425781 27.410156 -13.660156 31.734375 -17.234375 C 36.066406 -20.816406 39.425781 -23.675781 41.8125 -25.8125 C 42.445312 -26.4375 43.078125 -26.9375 43.703125 -27.3125 C 44.328125 -27.6875 44.828125 -27.6875 45.203125 -27.3125 C 45.585938 -26.9375 45.617188 -26.5 45.296875 -26 C 44.984375 -25.5 44.640625 -25.054688 44.265625 -24.671875 C 41.128906 -21.785156 37.738281 -18.863281 34.09375 -15.90625 C 30.457031 -12.957031 26.566406 -10.039062 22.421875 -7.15625 C 19.273438 -5.019531 15.753906 -3.007812 11.859375 -1.125 C 7.972656 0.757812 4.207031 1.703125 0.5625 1.703125 C -1.695312 1.703125 -3.863281 1.132812 -5.9375 0 C -8.007812 -1.132812 -9.046875 -3.519531 -9.046875 -7.15625 C -9.046875 -9.664062 -8.101562 -13.179688 -6.21875 -17.703125 C -4.332031 -22.222656 -0.375 -27.375 5.65625 -33.15625 C 9.925781 -37.175781 14.570312 -40.878906 19.59375 -44.265625 C 24.613281 -47.660156 29.476562 -50.425781 34.1875 -52.5625 C 38.894531 -54.695312 42.757812 -55.765625 45.78125 -55.765625 C 47.65625 -55.765625 49.0625 -55.320312 50 -54.4375 C 50.945312 -53.5625 51.421875 -52.429688 51.421875 -51.046875 C 51.421875 -49.035156 50.414062 -46.867188 48.40625 -44.546875 C 46.394531 -42.222656 44.070312 -40.179688 41.4375 -38.421875 C 38.425781 -36.421875 35.035156 -34.695312 31.265625 -33.25 C 27.503906 -31.800781 24.175781 -31.078125 21.28125 -31.078125 C 19.90625 -31.078125 18.710938 -31.328125 17.703125 -31.828125 Z M 19.03125 -33.15625 C 19.53125 -32.90625 20.03125 -32.78125 20.53125 -32.78125 C 22.414062 -32.78125 25.144531 -33.53125 28.71875 -35.03125 C 32.300781 -36.539062 35.851562 -38.738281 39.375 -41.625 C 42.007812 -43.757812 44.140625 -45.800781 45.765625 -47.75 C 47.398438 -49.695312 48.21875 -51.238281 48.21875 -52.375 C 48.21875 -53.125 47.78125 -53.5 46.90625 -53.5 C 45.644531 -53.5 43.316406 -52.398438 39.921875 -50.203125 C 36.535156 -48.003906 32.925781 -45.332031 29.09375 -42.1875 C 25.269531 -39.050781 21.914062 -36.039062 19.03125 -33.15625 Z M 19.03125 -33.15625 "/></g></g></g><g fill="#000000" fill-opacity="1"><g transform="translate(510.708113, 211.181376)"><g><path d="M 67.625 -26 C 68.125 -25.5 68.125 -24.960938 67.625 -24.390625 C 67.125 -23.828125 66.625 -23.359375 66.125 -22.984375 C 63.226562 -20.472656 59.925781 -17.675781 56.21875 -14.59375 C 52.519531 -11.519531 48.910156 -8.726562 45.390625 -6.21875 C 41.878906 -3.832031 38.550781 -1.914062 35.40625 -0.46875 C 32.269531 0.976562 29.570312 1.703125 27.3125 1.703125 C 22.789062 1.703125 20.53125 -0.5625 20.53125 -5.09375 C 20.53125 -8.101562 21.910156 -11.554688 24.671875 -15.453125 C 27.054688 -18.710938 29.378906 -21.503906 31.640625 -23.828125 C 33.898438 -26.148438 36.976562 -29.070312 40.875 -32.59375 C 42.882812 -34.34375 45.394531 -36.503906 48.40625 -39.078125 C 51.425781 -41.660156 54.128906 -44.113281 56.515625 -46.4375 C 58.898438 -48.757812 60.09375 -50.421875 60.09375 -51.421875 C 60.09375 -52.179688 59.648438 -52.5625 58.765625 -52.5625 C 57.140625 -52.5625 54.503906 -51.648438 50.859375 -49.828125 C 47.210938 -48.003906 43.097656 -45.644531 38.515625 -42.75 C 33.929688 -39.863281 29.410156 -36.789062 24.953125 -33.53125 C 20.492188 -30.269531 16.757812 -27.191406 13.75 -24.296875 C 10.613281 -21.410156 7.882812 -18.710938 5.5625 -16.203125 C 3.238281 -13.691406 0.851562 -11.019531 -1.59375 -8.1875 C -4.050781 -5.363281 -6.910156 -1.816406 -10.171875 2.453125 C -10.921875 2.453125 -11.515625 2.007812 -11.953125 1.125 C -12.398438 0.25 -12.625 -0.753906 -12.625 -1.890625 C -12.625 -3.265625 -11.554688 -5.707031 -9.421875 -9.21875 C -7.285156 -12.738281 -4.332031 -16.882812 -0.5625 -21.65625 C 3.207031 -26.4375 7.539062 -31.335938 12.4375 -36.359375 C 15.445312 -39.617188 18.519531 -42.597656 21.65625 -45.296875 C 24.800781 -48.003906 27.503906 -50.109375 29.765625 -51.609375 C 31.398438 -52.617188 33.410156 -53.375 35.796875 -53.875 C 38.179688 -54.375 40.566406 -54.625 42.953125 -54.625 C 39.679688 -52.363281 35.660156 -49.097656 30.890625 -44.828125 C 26.117188 -40.554688 21.660156 -36.035156 17.515625 -31.265625 C 17.265625 -31.015625 17.171875 -30.828125 17.234375 -30.703125 C 17.296875 -30.578125 17.390625 -30.578125 17.515625 -30.703125 C 19.898438 -32.710938 22.976562 -35.097656 26.75 -37.859375 C 30.519531 -40.617188 34.535156 -43.347656 38.796875 -46.046875 C 43.066406 -48.753906 47.117188 -50.984375 50.953125 -52.734375 C 54.785156 -54.492188 57.957031 -55.375 60.46875 -55.375 C 62.601562 -55.375 64.140625 -54.84375 65.078125 -53.78125 C 66.023438 -52.71875 66.5 -51.492188 66.5 -50.109375 C 66.5 -47.972656 65.492188 -45.519531 63.484375 -42.75 C 61.472656 -39.988281 59.117188 -37.257812 56.421875 -34.5625 C 53.722656 -31.863281 51.242188 -29.507812 48.984375 -27.5 C 45.960938 -24.738281 43.195312 -22.132812 40.6875 -19.6875 C 38.175781 -17.238281 35.914062 -14.945312 33.90625 -12.8125 C 31.519531 -10.300781 29.789062 -8.320312 28.71875 -6.875 C 27.65625 -5.425781 27.125 -4.203125 27.125 -3.203125 C 27.125 -1.941406 27.816406 -1.3125 29.203125 -1.3125 C 30.703125 -1.3125 32.925781 -2.066406 35.875 -3.578125 C 38.832031 -5.085938 41.878906 -6.910156 45.015625 -9.046875 C 48.285156 -11.429688 51.800781 -14.222656 55.5625 -17.421875 C 59.332031 -20.628906 62.472656 -23.238281 64.984375 -25.25 C 65.359375 -25.625 65.796875 -25.9375 66.296875 -26.1875 C 66.804688 -26.4375 67.25 -26.375 67.625 -26 Z M 67.625 -26 "/></g></g></g><g fill="#000000" fill-opacity="1"><g transform="translate(366.787832, 269.059397)"><g><path d="M 6.203125 -31.5 L 10.328125 -31.5 L 10.328125 -6.09375 L 6.203125 -6.09375 L 6.203125 0 L 21.078125 0 L 21.078125 -6.09375 L 16.953125 -6.09375 L 16.953125 -31.5 L 21.078125 -31.5 L 21.078125 -37.59375 L 6.203125 -37.59375 Z M 6.203125 -31.5 "/></g></g></g><g fill="#000000" fill-opacity="1"><g transform="translate(394.001679, 269.059397)"><g><path d="M 31.5625 -31.5 L 35.671875 -31.5 L 35.671875 -12.515625 L 14.234375 -37.59375 L 6.203125 -37.59375 L 6.203125 -31.5 L 10.328125 -31.5 L 10.328125 -6.09375 L 6.203125 -6.09375 L 6.203125 0 L 21.078125 0 L 21.078125 -6.09375 L 16.953125 -6.09375 L 16.953125 -24.65625 L 37.328125 0 L 42.3125 0 L 42.3125 -31.5 L 46.421875 -31.5 L 46.421875 -37.59375 L 31.5625 -37.59375 Z M 31.5625 -31.5 "/></g></g></g><g fill="#000000" fill-opacity="1"><g transform="translate(445.969959, 269.059397)"><g><path d="M 34.765625 -27.328125 L 34.765625 -37.59375 L 6.203125 -37.59375 L 6.203125 -31.5 L 10.328125 -31.5 L 10.328125 -6.09375 L 6.203125 -6.09375 L 6.203125 0 L 23.59375 0 L 23.59375 -6.09375 L 16.90625 -6.09375 L 16.90625 -14.65625 L 26.046875 -14.65625 L 26.046875 -20.53125 L 16.90625 -20.53125 L 16.90625 -31.5 L 29.09375 -31.5 L 29.09375 -27.328125 Z M 34.765625 -27.328125 "/></g></g></g><g fill="#000000" fill-opacity="1"><g transform="translate(484.678855, 269.059397)"><g><path d="M 6.25 -31.5 L 10.328125 -31.5 L 10.328125 -6.09375 L 6.25 -6.09375 L 6.25 0 L 22.09375 0 L 22.09375 -6.09375 L 16.953125 -6.09375 L 16.953125 -10.90625 L 21.078125 -10.90625 C 21.765625 -10.90625 22.40625 -10.90625 23.046875 -10.96875 C 27.59375 -8.390625 27.0625 0.21875 36.421875 0.21875 C 38.609375 0.21875 40 -0.109375 40 -0.109375 L 40 -5.984375 L 38.515625 -5.984375 C 33.96875 -5.984375 33.21875 -10.15625 30.265625 -12.671875 C 35.25 -14.921875 37.390625 -19.046875 37.390625 -24.234375 C 37.390625 -32.09375 32.359375 -37.59375 22.359375 -37.59375 L 6.25 -37.59375 Z M 21.875 -31.5 C 28.140625 -31.5 30.21875 -28.34375 30.21875 -24.234375 C 30.21875 -20.109375 28.078125 -16.796875 21.875 -16.796875 L 16.953125 -16.796875 L 16.953125 -31.5 Z M 21.875 -31.5 "/></g></g></g><g fill="#000000" fill-opacity="1"><g transform="translate(529.589716, 269.059397)"><g><path d="M 2.671875 0 L 16.734375 0 L 16.734375 -6.09375 L 13.53125 -6.09375 L 15.1875 -10 L 29.359375 -10 L 31.078125 -6.09375 L 28.1875 -6.09375 L 28.1875 0 L 42.140625 0 L 42.140625 -6.09375 L 38.078125 -6.09375 L 23.96875 -37.59375 L 20.859375 -37.59375 L 6.734375 -6.09375 L 2.671875 -6.09375 Z M 22.296875 -26.53125 L 27.109375 -15.296875 L 17.484375 -15.296875 Z M 22.296875 -26.53125 "/></g></g></g></svg>