<svg xmlns="http://www.w3.org/2000/svg" xmlns:xlink="http://www.w3.org/1999/xlink" width="633" zoomAndPan="magnify" viewBox="0 0 474.75 388.499989" height="518" preserveAspectRatio="xMidYMid meet" version="1.0"><defs><g/></defs><g fill="#000000" fill-opacity="1"><g transform="translate(86.275352, 230.731668)"><g><path d="M 142.609375 -120.40625 C 153.898438 -120.40625 163.148438 -117.925781 170.359375 -112.96875 C 177.566406 -108.019531 181.171875 -100.46875 181.171875 -90.3125 C 181.171875 -85.414062 180.039062 -80.582031 177.78125 -75.8125 C 175.53125 -71.050781 172.425781 -67.007812 168.46875 -63.6875 C 164.519531 -60.363281 159.914062 -58.265625 154.65625 -57.390625 C 151.519531 -52.117188 147.816406 -46.878906 143.546875 -41.671875 C 139.285156 -36.460938 134.832031 -31.726562 130.1875 -27.46875 C 122.039062 -19.945312 112.976562 -13.144531 103 -7.0625 C 93.03125 -0.976562 83.03125 3.910156 73 7.609375 C 62.96875 11.316406 53.625 13.359375 44.96875 13.734375 C 39.820312 13.859375 34.644531 13.320312 29.4375 12.125 C 24.238281 10.9375 19.816406 8.398438 16.171875 4.515625 C 12.535156 0.628906 10.46875 -5.140625 9.96875 -12.796875 C 9.21875 -26.210938 12.976562 -39.535156 21.25 -52.765625 C 29.53125 -66.003906 41.382812 -78.457031 56.8125 -90.125 C 67.226562 -97.894531 77.578125 -103.972656 87.859375 -108.359375 C 98.148438 -112.753906 107.96875 -115.859375 117.3125 -117.671875 C 126.65625 -119.492188 135.085938 -120.40625 142.609375 -120.40625 Z M 176.46875 -90.3125 C 176.46875 -96.832031 175.054688 -102.097656 172.234375 -106.109375 C 169.421875 -110.117188 165.597656 -113.097656 160.765625 -115.046875 C 155.929688 -116.992188 150.503906 -117.96875 144.484375 -117.96875 C 133.828125 -117.96875 121.566406 -115.113281 107.703125 -109.40625 C 93.847656 -103.695312 79.269531 -94.882812 63.96875 -82.96875 C 54.0625 -75.195312 45.40625 -67.140625 38 -58.796875 C 30.601562 -50.453125 24.832031 -42.359375 20.6875 -34.515625 C 16.550781 -26.679688 14.484375 -19.503906 14.484375 -12.984375 C 14.484375 -7.335938 15.484375 -2.882812 17.484375 0.375 C 19.492188 3.632812 22.128906 6.046875 25.390625 7.609375 C 28.660156 9.179688 32.238281 10.125 36.125 10.4375 C 40.007812 10.75 43.832031 10.84375 47.59375 10.71875 C 42.207031 9.71875 38.351562 7.398438 36.03125 3.765625 C 33.707031 0.128906 32.546875 -3.882812 32.546875 -8.28125 C 32.546875 -15.050781 33.863281 -21.601562 36.5 -27.9375 C 39.132812 -34.269531 42.675781 -40.257812 47.125 -45.90625 C 51.582031 -51.550781 56.472656 -56.816406 61.796875 -61.703125 C 67.128906 -66.597656 72.429688 -70.988281 77.703125 -74.875 C 85.097656 -80.394531 92.78125 -85.066406 100.75 -88.890625 C 108.71875 -92.722656 116.429688 -95.640625 123.890625 -97.640625 C 131.347656 -99.648438 138.085938 -100.65625 144.109375 -100.65625 C 150.003906 -100.65625 154.832031 -99.398438 158.59375 -96.890625 C 162.363281 -94.378906 164.25 -90.175781 164.25 -84.28125 C 164.25 -80.019531 163.429688 -75.785156 161.796875 -71.578125 C 160.171875 -67.378906 158.164062 -63.273438 155.78125 -59.265625 C 162.050781 -61.398438 167.066406 -65.410156 170.828125 -71.296875 C 174.585938 -77.191406 176.46875 -83.53125 176.46875 -90.3125 Z M 161.421875 -84.46875 C 161.546875 -89.613281 159.976562 -93.1875 156.71875 -95.1875 C 153.457031 -97.195312 149.632812 -98.203125 145.25 -98.203125 C 136.59375 -98.203125 126.710938 -95.597656 115.609375 -90.390625 C 104.515625 -85.191406 93.382812 -78.328125 82.21875 -69.796875 C 77.320312 -66.035156 72.144531 -61.832031 66.6875 -57.1875 C 61.238281 -52.550781 56.160156 -47.597656 51.453125 -42.328125 C 46.753906 -37.066406 42.929688 -31.519531 39.984375 -25.6875 C 37.035156 -19.851562 35.5625 -13.800781 35.5625 -7.53125 C 35.5625 -3.007812 36.972656 0.972656 39.796875 4.421875 C 42.617188 7.867188 47.726562 9.59375 55.125 9.59375 C 62.90625 8.09375 70.898438 5.363281 79.109375 1.40625 C 87.328125 -2.539062 95.476562 -7.398438 103.5625 -13.171875 C 111.65625 -18.941406 119.34375 -25.273438 126.625 -32.171875 C 129.25 -34.679688 132.503906 -38.003906 136.390625 -42.140625 C 140.285156 -46.285156 144.113281 -50.832031 147.875 -55.78125 C 151.632812 -60.738281 154.800781 -65.691406 157.375 -70.640625 C 159.945312 -75.597656 161.296875 -80.207031 161.421875 -84.46875 Z M 161.421875 -84.46875 "/></g></g></g><g fill="#000000" fill-opacity="1"><g transform="translate(233.577322, 230.731668)"><g><path d="M 17.125 -31.796875 C 17 -31.671875 17 -31.546875 17.125 -31.421875 C 17.25 -31.296875 17.375 -31.296875 17.5 -31.421875 C 19.5 -33.171875 22.160156 -35.394531 25.484375 -38.09375 C 28.816406 -40.789062 32.363281 -43.457031 36.125 -46.09375 C 39.882812 -48.726562 43.488281 -50.921875 46.9375 -52.671875 C 50.382812 -54.429688 53.175781 -55.3125 55.3125 -55.3125 C 58.945312 -55.3125 60.765625 -53.679688 60.765625 -50.421875 C 60.765625 -46.535156 59.351562 -42.082031 56.53125 -37.0625 C 53.707031 -32.039062 50.289062 -27.523438 46.28125 -23.515625 C 38 -15.109375 30.253906 -8.867188 23.046875 -4.796875 C 15.835938 -0.722656 9.285156 1.3125 3.390625 1.3125 C 0.628906 1.3125 -1.25 0.75 -2.25 -0.375 C -3.257812 -1.5 -3.765625 -2.628906 -3.765625 -3.765625 C -3.765625 -4.765625 -3.515625 -5.265625 -3.015625 -5.265625 C -2.503906 -5.390625 -2.1875 -5.265625 -2.0625 -4.890625 C -1.9375 -4.515625 -1.75 -4.140625 -1.5 -3.765625 C -1.25 -3.265625 -0.84375 -2.757812 -0.28125 -2.25 C 0.28125 -1.75 1.191406 -1.5 2.453125 -1.5 C 4.828125 -1.5 7.363281 -2.1875 10.0625 -3.5625 C 12.757812 -4.945312 16.238281 -7.613281 20.5 -11.5625 C 24.769531 -15.519531 30.539062 -21.195312 37.8125 -28.59375 C 40.195312 -30.976562 42.800781 -33.644531 45.625 -36.59375 C 48.445312 -39.539062 50.890625 -42.363281 52.953125 -45.0625 C 55.023438 -47.757812 56.0625 -49.734375 56.0625 -50.984375 C 56.0625 -51.859375 55.4375 -52.296875 54.1875 -52.296875 C 52.300781 -52.296875 49.382812 -51.164062 45.4375 -48.90625 C 41.488281 -46.65625 37.097656 -43.710938 32.265625 -40.078125 C 27.429688 -36.441406 22.628906 -32.582031 17.859375 -28.5 C 13.097656 -24.425781 8.898438 -20.570312 5.265625 -16.9375 C -3.390625 -8.15625 -12.609375 1.625 -22.390625 12.40625 C -32.171875 23.195312 -42.332031 35.867188 -52.875 50.421875 C -54 52.054688 -55 53.5 -55.875 54.75 C -56.75 56 -57.441406 56.625 -57.953125 56.625 C -58.703125 56.625 -59.046875 55.835938 -58.984375 54.265625 C -58.921875 52.703125 -58.703125 51.296875 -58.328125 50.046875 C -57.316406 46.535156 -54.867188 41.832031 -50.984375 35.9375 C -47.097656 30.039062 -42.457031 23.769531 -37.0625 17.125 C -30.789062 9.46875 -24.519531 2.191406 -18.25 -4.703125 C -11.976562 -11.597656 -6.269531 -17.710938 -1.125 -23.046875 C 4.007812 -28.378906 8.019531 -32.488281 10.90625 -35.375 C 15.300781 -39.882812 20.285156 -44.773438 25.859375 -50.046875 C 31.441406 -55.316406 38.125 -60.457031 45.90625 -65.46875 C 49.039062 -67.476562 51.832031 -68.828125 54.28125 -69.515625 C 56.726562 -70.203125 58.578125 -70.546875 59.828125 -70.546875 C 60.453125 -70.546875 61.140625 -70.453125 61.890625 -70.265625 C 62.648438 -70.078125 63.03125 -69.671875 63.03125 -69.046875 C 63.03125 -68.796875 62.679688 -68.640625 61.984375 -68.578125 C 61.296875 -68.515625 60.703125 -68.421875 60.203125 -68.296875 C 56.566406 -67.921875 52.488281 -65.976562 47.96875 -62.46875 C 44.832031 -59.957031 41.445312 -56.941406 37.8125 -53.421875 C 34.175781 -49.910156 30.570312 -46.273438 27 -42.515625 C 23.425781 -38.753906 20.132812 -35.179688 17.125 -31.796875 Z M 17.125 -31.796875 "/></g></g></g><g fill="#000000" fill-opacity="1"><g transform="translate(290.955479, 230.731668)"><g><path d="M 17.6875 -31.796875 C 14.550781 -28.910156 11.476562 -25.773438 8.46875 -22.390625 C 5.457031 -19.003906 2.945312 -15.742188 0.9375 -12.609375 C -1.0625 -9.472656 -2.0625 -6.898438 -2.0625 -4.890625 C -2.0625 -2.378906 -0.625 -1.125 2.25 -1.125 C 4.132812 -1.125 6.519531 -1.6875 9.40625 -2.8125 C 12.289062 -3.945312 15.300781 -5.519531 18.4375 -7.53125 C 22.945312 -10.414062 27.363281 -13.644531 31.6875 -17.21875 C 36.019531 -20.789062 39.378906 -23.644531 41.765625 -25.78125 C 42.390625 -26.40625 43.015625 -26.90625 43.640625 -27.28125 C 44.273438 -27.65625 44.78125 -27.65625 45.15625 -27.28125 C 45.53125 -26.90625 45.5625 -26.460938 45.25 -25.953125 C 44.9375 -25.453125 44.59375 -25.015625 44.21875 -24.640625 C 41.082031 -21.753906 37.691406 -18.835938 34.046875 -15.890625 C 30.410156 -12.953125 26.523438 -10.039062 22.390625 -7.15625 C 19.253906 -5.019531 15.738281 -3.007812 11.84375 -1.125 C 7.957031 0.75 4.195312 1.6875 0.5625 1.6875 C -1.695312 1.6875 -3.859375 1.125 -5.921875 0 C -7.992188 -1.125 -9.03125 -3.507812 -9.03125 -7.15625 C -9.03125 -9.65625 -8.085938 -13.160156 -6.203125 -17.671875 C -4.328125 -22.191406 -0.378906 -27.335938 5.640625 -33.109375 C 9.910156 -37.128906 14.550781 -40.832031 19.5625 -44.21875 C 24.582031 -47.601562 29.441406 -50.359375 34.140625 -52.484375 C 38.847656 -54.617188 42.707031 -55.6875 45.71875 -55.6875 C 47.601562 -55.6875 49.015625 -55.25 49.953125 -54.375 C 50.890625 -53.5 51.359375 -52.367188 51.359375 -50.984375 C 51.359375 -48.972656 50.351562 -46.804688 48.34375 -44.484375 C 46.34375 -42.171875 44.023438 -40.132812 41.390625 -38.375 C 38.378906 -36.375 34.992188 -34.648438 31.234375 -33.203125 C 27.472656 -31.765625 24.148438 -31.046875 21.265625 -31.046875 C 19.878906 -31.046875 18.6875 -31.296875 17.6875 -31.796875 Z M 19 -33.109375 C 19.5 -32.859375 20 -32.734375 20.5 -32.734375 C 22.382812 -32.734375 25.113281 -33.484375 28.6875 -34.984375 C 32.257812 -36.492188 35.804688 -38.691406 39.328125 -41.578125 C 41.953125 -43.710938 44.078125 -45.75 45.703125 -47.6875 C 47.335938 -49.632812 48.15625 -51.171875 48.15625 -52.296875 C 48.15625 -53.054688 47.71875 -53.4375 46.84375 -53.4375 C 45.59375 -53.4375 43.273438 -52.335938 39.890625 -50.140625 C 36.503906 -47.941406 32.894531 -45.273438 29.0625 -42.140625 C 25.238281 -39.003906 21.882812 -35.992188 19 -33.109375 Z M 19 -33.109375 "/></g></g></g><g fill="#000000" fill-opacity="1"><g transform="translate(330.085497, 230.731668)"><g><path d="M 67.546875 -25.96875 C 68.046875 -25.457031 68.046875 -24.921875 67.546875 -24.359375 C 67.046875 -23.796875 66.539062 -23.328125 66.03125 -22.953125 C 63.144531 -20.441406 59.851562 -17.648438 56.15625 -14.578125 C 52.457031 -11.503906 48.851562 -8.710938 45.34375 -6.203125 C 41.832031 -3.828125 38.507812 -1.914062 35.375 -0.46875 C 32.238281 0.96875 29.539062 1.6875 27.28125 1.6875 C 22.757812 1.6875 20.5 -0.566406 20.5 -5.078125 C 20.5 -8.085938 21.878906 -11.535156 24.640625 -15.421875 C 27.023438 -18.679688 29.347656 -21.472656 31.609375 -23.796875 C 33.867188 -26.117188 36.941406 -29.035156 40.828125 -32.546875 C 42.835938 -34.304688 45.347656 -36.46875 48.359375 -39.03125 C 51.367188 -41.601562 54.0625 -44.050781 56.4375 -46.375 C 58.820312 -48.695312 60.015625 -50.359375 60.015625 -51.359375 C 60.015625 -52.109375 59.578125 -52.484375 58.703125 -52.484375 C 57.066406 -52.484375 54.429688 -51.570312 50.796875 -49.75 C 47.160156 -47.9375 43.050781 -45.585938 38.46875 -42.703125 C 33.894531 -39.816406 29.378906 -36.742188 24.921875 -33.484375 C 20.472656 -30.222656 16.742188 -27.148438 13.734375 -24.265625 C 10.597656 -21.378906 7.867188 -18.679688 5.546875 -16.171875 C 3.222656 -13.671875 0.84375 -11.007812 -1.59375 -8.1875 C -4.039062 -5.363281 -6.894531 -1.816406 -10.15625 2.453125 C -10.90625 2.453125 -11.5 2.007812 -11.9375 1.125 C -12.382812 0.25 -12.609375 -0.75 -12.609375 -1.875 C -12.609375 -3.257812 -11.539062 -5.707031 -9.40625 -9.21875 C -7.269531 -12.726562 -4.320312 -16.863281 -0.5625 -21.625 C 3.195312 -26.394531 7.523438 -31.289062 12.421875 -36.3125 C 15.429688 -39.570312 18.503906 -42.550781 21.640625 -45.25 C 24.773438 -47.945312 27.46875 -50.046875 29.71875 -51.546875 C 31.351562 -52.554688 33.363281 -53.3125 35.75 -53.8125 C 38.132812 -54.3125 40.515625 -54.5625 42.890625 -54.5625 C 39.628906 -52.300781 35.613281 -49.035156 30.84375 -44.765625 C 26.082031 -40.503906 21.632812 -35.992188 17.5 -31.234375 C 17.25 -30.984375 17.15625 -30.796875 17.21875 -30.671875 C 17.28125 -30.546875 17.375 -30.546875 17.5 -30.671875 C 19.882812 -32.671875 22.957031 -35.050781 26.71875 -37.8125 C 30.476562 -40.570312 34.488281 -43.300781 38.75 -46 C 43.019531 -48.695312 47.066406 -50.921875 50.890625 -52.671875 C 54.710938 -54.429688 57.878906 -55.3125 60.390625 -55.3125 C 62.523438 -55.3125 64.0625 -54.773438 65 -53.703125 C 65.9375 -52.640625 66.40625 -51.421875 66.40625 -50.046875 C 66.40625 -47.910156 65.398438 -45.460938 63.390625 -42.703125 C 61.390625 -39.941406 59.039062 -37.210938 56.34375 -34.515625 C 53.644531 -31.828125 51.171875 -29.476562 48.921875 -27.46875 C 45.910156 -24.707031 43.148438 -22.101562 40.640625 -19.65625 C 38.128906 -17.207031 35.867188 -14.921875 33.859375 -12.796875 C 31.484375 -10.285156 29.757812 -8.304688 28.6875 -6.859375 C 27.625 -5.421875 27.09375 -4.203125 27.09375 -3.203125 C 27.09375 -1.941406 27.78125 -1.3125 29.15625 -1.3125 C 30.664062 -1.3125 32.894531 -2.0625 35.84375 -3.5625 C 38.789062 -5.070312 41.832031 -6.894531 44.96875 -9.03125 C 48.226562 -11.414062 51.738281 -14.207031 55.5 -17.40625 C 59.257812 -20.601562 62.394531 -23.203125 64.90625 -25.203125 C 65.28125 -25.585938 65.71875 -25.90625 66.21875 -26.15625 C 66.726562 -26.40625 67.171875 -26.34375 67.546875 -25.96875 Z M 67.546875 -25.96875 "/></g></g></g><g fill="#000000" fill-opacity="1"><g transform="translate(186.350207, 288.53528)"><g><path d="M 6.1875 -31.453125 L 10.3125 -31.453125 L 10.3125 -6.09375 L 6.1875 -6.09375 L 6.1875 0 L 21.046875 0 L 21.046875 -6.09375 L 16.9375 -6.09375 L 16.9375 -31.453125 L 21.046875 -31.453125 L 21.046875 -37.546875 L 6.1875 -37.546875 Z M 6.1875 -31.453125 "/></g></g></g><g fill="#000000" fill-opacity="1"><g transform="translate(213.529075, 288.53528)"><g><path d="M 31.515625 -31.453125 L 35.625 -31.453125 L 35.625 -12.5 L 14.203125 -37.546875 L 6.1875 -37.546875 L 6.1875 -31.453125 L 10.3125 -31.453125 L 10.3125 -6.09375 L 6.1875 -6.09375 L 6.1875 0 L 21.046875 0 L 21.046875 -6.09375 L 16.9375 -6.09375 L 16.9375 -24.625 L 37.28125 0 L 42.25 0 L 42.25 -31.453125 L 46.359375 -31.453125 L 46.359375 -37.546875 L 31.515625 -37.546875 Z M 31.515625 -31.453125 "/></g></g></g><g fill="#000000" fill-opacity="1"><g transform="translate(265.430557, 288.53528)"><g><path d="M 34.71875 -27.296875 L 34.71875 -37.546875 L 6.1875 -37.546875 L 6.1875 -31.453125 L 10.3125 -31.453125 L 10.3125 -6.09375 L 6.1875 -6.09375 L 6.1875 0 L 23.546875 0 L 23.546875 -6.09375 L 16.875 -6.09375 L 16.875 -14.640625 L 26.015625 -14.640625 L 26.015625 -20.515625 L 16.875 -20.515625 L 16.875 -31.453125 L 29.046875 -31.453125 L 29.046875 -27.296875 Z M 34.71875 -27.296875 "/></g></g></g><g fill="#000000" fill-opacity="1"><g transform="translate(304.089697, 288.53528)"><g><path d="M 6.25 -31.453125 L 10.3125 -31.453125 L 10.3125 -6.09375 L 6.25 -6.09375 L 6.25 0 L 22.0625 0 L 22.0625 -6.09375 L 16.9375 -6.09375 L 16.9375 -10.890625 L 21.046875 -10.890625 C 21.734375 -10.890625 22.375 -10.890625 23.015625 -10.953125 C 27.5625 -8.390625 27.03125 0.21875 36.375 0.21875 C 38.5625 0.21875 39.953125 -0.109375 39.953125 -0.109375 L 39.953125 -5.984375 L 38.453125 -5.984375 C 33.90625 -5.984375 33.171875 -10.140625 30.234375 -12.65625 C 35.1875 -14.90625 37.328125 -19.015625 37.328125 -24.1875 C 37.328125 -32.046875 32.3125 -37.546875 22.328125 -37.546875 L 6.25 -37.546875 Z M 21.84375 -31.453125 C 28.09375 -31.453125 30.171875 -28.3125 30.171875 -24.1875 C 30.171875 -20.078125 28.03125 -16.765625 21.84375 -16.765625 L 16.9375 -16.765625 L 16.9375 -31.453125 Z M 21.84375 -31.453125 "/></g></g></g><g fill="#000000" fill-opacity="1"><g transform="translate(348.942831, 288.53528)"><g><path d="M 2.671875 0 L 16.71875 0 L 16.71875 -6.09375 L 13.515625 -6.09375 L 15.171875 -9.984375 L 29.3125 -9.984375 L 31.03125 -6.09375 L 28.140625 -6.09375 L 28.140625 0 L 42.078125 0 L 42.078125 -6.09375 L 38.03125 -6.09375 L 23.921875 -37.546875 L 20.828125 -37.546875 L 6.734375 -6.09375 L 2.671875 -6.09375 Z M 22.265625 -26.484375 L 27.078125 -15.28125 L 17.46875 -15.28125 Z M 22.265625 -26.484375 "/></g></g></g></svg>